<?xml version="1.0" standalone="no"?>
<!DOCTYPE svg PUBLIC "-//W3C//DTD SVG 20010904//EN"
 "http://www.w3.org/TR/2001/REC-SVG-20010904/DTD/svg10.dtd">
<svg version="1.0" xmlns="http://www.w3.org/2000/svg"
 width="300.000000pt" height="271.000000pt" viewBox="0 0 300.000000 271.000000"
 preserveAspectRatio="xMidYMid meet">
<metadata>
Created by potrace 1.16, written by Peter Selinger 2001-2019
</metadata>
<g transform="translate(0.000000,271.000000) scale(0.100000,-0.100000)"
fill="#000000" stroke="none">
<path d="M1235 2690 c-273 -54 -502 -177 -699 -374 -202 -202 -333 -450 -380
-723 -20 -113 -21 -351 -1 -462 49 -277 179 -526 380 -726 202 -202 450 -333
719 -380 116 -20 356 -20 472 0 416 73 785 350 979 734 48 97 101 256 120 365
20 116 20 356 0 472 -46 265 -180 519 -380 719 -200 201 -449 332 -722 379
-123 22 -370 20 -488 -4z m429 -60 c417 -61 788 -325 969 -691 95 -191 137
-370 137 -579 0 -282 -88 -547 -254 -768 -247 -327 -617 -512 -1026 -512 -324
0 -630 119 -872 339 -181 165 -322 411 -379 662 -26 117 -36 323 -20 439 54
402 284 747 631 950 127 74 309 137 459 159 80 12 274 12 355 1z"/>
<path d="M1284 2505 c-271 -50 -526 -202 -698 -417 -36 -45 -66 -86 -66 -91 0
-6 86 -8 212 -6 l213 4 3 -26 c4 -37 -15 -48 -96 -55 -40 -4 -72 -11 -72 -16
0 -4 84 -257 186 -561 102 -303 195 -582 206 -620 12 -37 25 -67 29 -67 4 0
64 171 134 379 l126 379 -85 234 c-46 128 -87 240 -91 249 -4 12 -28 19 -83
25 l-77 9 0 35 0 34 343 1 343 0 6 -23 c9 -37 -15 -51 -100 -58 -66 -6 -77 -9
-71 -23 3 -9 98 -288 210 -620 113 -333 207 -607 209 -610 8 -8 11 0 59 164
26 88 64 216 86 285 21 69 46 160 56 204 31 147 1 280 -105 459 -33 56 -67
122 -76 146 -32 90 -10 190 53 243 37 31 95 52 123 45 30 -8 23 6 -23 44 -155
128 -352 220 -545 254 -105 18 -309 18 -409 0z"/>
<path d="M2504 1792 c-1 -134 -15 -216 -57 -337 -126 -362 -221 -637 -288
-830 -43 -126 -84 -238 -90 -248 -20 -35 -1 -29 78 24 102 68 234 202 306 310
129 195 186 368 194 595 6 159 -5 260 -43 387 -21 71 -87 227 -96 227 -2 0 -3
-57 -4 -128z"/>
<path d="M392 1738 c-121 -366 -65 -748 154 -1055 67 -93 147 -176 235 -243
86 -65 199 -134 206 -126 3 2 -5 31 -17 63 -12 32 -74 200 -137 373 -63 173
-157 430 -208 570 -51 140 -103 282 -115 315 -59 162 -72 195 -80 195 -4 0
-21 -42 -38 -92z"/>
<path d="M1418 1007 c-47 -138 -125 -364 -172 -502 -47 -137 -86 -253 -86
-257 0 -16 155 -41 285 -46 151 -5 246 6 363 40 58 17 72 24 67 37 -8 19 -201
546 -292 799 -37 100 -69 182 -72 182 -3 0 -45 -114 -93 -253z"/>
</g>
</svg>
